<svg width="227" height="48" viewBox="0 0 227 48" xmlns="http://www.w3.org/2000/svg">
    <g fill="#e8397b">
        <path d="M191.991 17.556V38H186.367V35.568C185.581 36.4547 184.644 37.1387 183.555 37.62C182.465 38.076 181.287 38.304 180.021 38.304C177.335 38.304 175.207 37.5313 173.637 35.986C172.066 34.4407 171.281 32.148 171.281 29.108V17.556H177.209V28.234C177.209 31.5273 178.589 33.174 181.351 33.174C182.769 33.174 183.909 32.718 184.771 31.806C185.632 30.8687 186.063 29.488 186.063 27.664V17.556H191.991Z"/>
        <path d="M197.483 9.804H203.411V38H197.483V9.804Z"/>
        <path d="M217.158 17.252C220.325 17.252 222.757 18.012 224.454 19.532C226.152 21.0267 227 23.294 227 26.334V38H221.452V35.454C220.338 37.354 218.26 38.304 215.22 38.304C213.65 38.304 212.282 38.038 211.116 37.506C209.976 36.974 209.102 36.2393 208.494 35.302C207.886 34.3647 207.582 33.3007 207.582 32.11C207.582 30.21 208.292 28.7153 209.71 27.626C211.154 26.5367 213.371 25.992 216.36 25.992H221.072C221.072 24.7 220.68 23.712 219.894 23.028C219.109 22.3187 217.931 21.964 216.36 21.964C215.271 21.964 214.194 22.1413 213.13 22.496C212.092 22.8253 211.205 23.2813 210.47 23.864L208.342 19.722C209.457 18.9367 210.787 18.3287 212.332 17.898C213.903 17.4673 215.512 17.252 217.158 17.252ZM216.702 34.314C217.716 34.314 218.615 34.086 219.4 33.63C220.186 33.1487 220.743 32.452 221.072 31.54V29.45H217.006C214.574 29.45 213.358 30.248 213.358 31.844C213.358 32.604 213.65 33.212 214.232 33.668C214.84 34.0987 215.664 34.314 216.702 34.314Z"/>
    </g>
    <g fill="#FFFFFF">
        <path d="M73.246 16.34V23.37H85.558V28.31H73.246V38H67.09V11.4H87.192V16.34H73.246Z"/>
        <path d="M100.15 38.304C97.9967 38.304 96.0587 37.8607 94.336 36.974C92.6387 36.062 91.3087 34.808 90.346 33.212C89.3833 31.616 88.902 29.8047 88.902 27.778C88.902 25.7513 89.3833 23.94 90.346 22.344C91.3087 20.748 92.6387 19.5067 94.336 18.62C96.0587 17.708 97.9967 17.252 100.15 17.252C102.303 17.252 104.229 17.708 105.926 18.62C107.623 19.5067 108.953 20.748 109.916 22.344C110.879 23.94 111.36 25.7513 111.36 27.778C111.36 29.8047 110.879 31.616 109.916 33.212C108.953 34.808 107.623 36.062 105.926 36.974C104.229 37.8607 102.303 38.304 100.15 38.304ZM100.15 33.44C101.67 33.44 102.911 32.9333 103.874 31.92C104.862 30.8813 105.356 29.5007 105.356 27.778C105.356 26.0553 104.862 24.6873 103.874 23.674C102.911 22.6353 101.67 22.116 100.15 22.116C98.63 22.116 97.376 22.6353 96.388 23.674C95.4 24.6873 94.906 26.0553 94.906 27.778C94.906 29.5007 95.4 30.8813 96.388 31.92C97.376 32.9333 98.63 33.44 100.15 33.44Z"/>
        <path d="M120.984 20.254C121.694 19.266 122.644 18.5187 123.834 18.012C125.05 17.5053 126.444 17.252 128.014 17.252V22.724C127.356 22.6733 126.912 22.648 126.684 22.648C124.987 22.648 123.657 23.1293 122.694 24.092C121.732 25.0293 121.25 26.448 121.25 28.348V38H115.322V17.556H120.984V20.254Z"/>
        <path d="M157.721 17.252C160.28 17.252 162.307 18.012 163.801 19.532C165.321 21.0267 166.081 23.2813 166.081 26.296V38H160.153V27.208C160.153 25.5867 159.811 24.3833 159.127 23.598C158.469 22.7873 157.519 22.382 156.277 22.382C154.884 22.382 153.782 22.838 152.971 23.75C152.161 24.6367 151.755 25.9667 151.755 27.74V38H145.827V27.208C145.827 23.9907 144.535 22.382 141.951 22.382C140.583 22.382 139.494 22.838 138.683 23.75C137.873 24.6367 137.467 25.9667 137.467 27.74V38H131.539V17.556H137.201V19.912C137.961 19.0507 138.886 18.392 139.975 17.936C141.09 17.48 142.306 17.252 143.623 17.252C145.067 17.252 146.372 17.5433 147.537 18.126C148.703 18.6833 149.64 19.5067 150.349 20.596C151.185 19.532 152.237 18.7087 153.503 18.126C154.795 17.5433 156.201 17.252 157.721 17.252Z"/>
    </g>
    <path fill-rule="evenodd" clip-rule="evenodd" d="M24 0C10.7452 0 0 10.7452 0 24C0 37.2548 10.7452 48 24 48C37.2548 48 48 37.2548 48 24C48 10.7452 37.2548 0 24 0ZM22.2733 13.9029C22.629 8.90248 28.7547 6.26529 33.0307 9.27174L33.5312 9.62432C33.7314 9.7651 33.9001 9.94147 34.0276 10.1434C34.1551 10.3453 34.2389 10.5687 34.2743 10.801C34.3097 11.0333 34.2959 11.2698 34.2338 11.4971C34.1717 11.7244 34.0625 11.938 33.9123 12.1257C33.7622 12.3134 33.5741 12.4716 33.3588 12.5911C33.1434 12.7107 32.9051 12.7893 32.6574 12.8225C32.4097 12.8556 32.1574 12.8427 31.915 12.7845C31.6726 12.7263 31.4448 12.6238 31.2446 12.4831L30.7441 12.1305C30.3233 11.8342 29.8249 11.65 29.3017 11.5973C28.7785 11.5445 28.2498 11.6253 27.7715 11.831C27.2932 12.0367 26.883 12.3597 26.5842 12.7659C26.2855 13.1721 26.1093 13.6464 26.0742 14.1388L25.9142 16.4138H29.212C29.7174 16.4138 30.2021 16.6021 30.5594 16.9372C30.9168 17.2722 31.1176 17.7267 31.1176 18.2006C31.1176 18.6744 30.9168 19.1289 30.5594 19.464C30.2021 19.799 29.7174 19.9873 29.212 19.9873H25.6601L24.5752 35.2173C24.5032 36.2311 24.1807 37.2153 23.6332 38.0921C23.0857 38.969 22.3282 39.7144 21.4205 40.2694C20.5129 40.8245 19.4799 41.174 18.4034 41.2903C17.3269 41.4066 16.2363 41.2865 15.2178 40.9395L14.5877 40.7251C14.3525 40.6449 14.1364 40.522 13.9519 40.3634C13.7673 40.2049 13.6178 40.0138 13.512 39.8011C13.4062 39.5884 13.3461 39.3583 13.3352 39.1238C13.3242 38.8893 13.3626 38.6551 13.4482 38.4345C13.5338 38.214 13.6649 38.0114 13.8339 37.8383C14.003 37.6653 14.2068 37.5251 14.4336 37.4259C14.6605 37.3267 14.906 37.2704 15.156 37.2601C15.4061 37.2498 15.6559 37.2858 15.8911 37.3661L16.5186 37.5805C16.9814 37.7381 17.477 37.7927 17.9661 37.7399C18.4553 37.6872 18.9246 37.5285 19.3371 37.2764C19.7496 37.0243 20.094 36.6858 20.343 36.2875C20.5919 35.8892 20.7388 35.442 20.7718 34.9814L21.8389 19.9873H20.3195C19.8142 19.9873 19.3295 19.799 18.9721 19.464C18.6148 19.1289 18.414 18.6744 18.414 18.2006C18.414 17.7267 18.6148 17.2722 18.9721 16.9372C19.3295 16.6021 19.8142 16.4138 20.3195 16.4138H22.0955L22.2733 13.9029Z" fill="#4084F3"/>
</svg>
