<svg width="48" height="48" viewBox="0 0 48 48" fill="#e8397b" xmlns="http://www.w3.org/2000/svg">
    <title>Formula</title>
    <path fill-rule="evenodd" clip-rule="evenodd" d="M24 0C10.7452 0 0 10.7452 0 24C0 37.2548 10.7452 48 24 48C37.2548 48 48 37.2548 48 24C48 10.7452 37.2548 0 24 0ZM22.2733 13.9029C22.629 8.90248 28.7547 6.26529 33.0307 9.27174L33.5312 9.62432C33.7314 9.7651 33.9001 9.94147 34.0276 10.1434C34.1551 10.3453 34.2389 10.5687 34.2743 10.801C34.3097 11.0333 34.2959 11.2698 34.2338 11.4971C34.1717 11.7244 34.0625 11.938 33.9123 12.1257C33.7622 12.3134 33.5741 12.4716 33.3588 12.5911C33.1434 12.7107 32.9051 12.7893 32.6574 12.8225C32.4097 12.8556 32.1574 12.8427 31.915 12.7845C31.6726 12.7263 31.4448 12.6238 31.2446 12.4831L30.7441 12.1305C30.3233 11.8342 29.8249 11.65 29.3017 11.5973C28.7785 11.5445 28.2498 11.6253 27.7715 11.831C27.2932 12.0367 26.883 12.3597 26.5842 12.7659C26.2855 13.1721 26.1093 13.6464 26.0742 14.1388L25.9142 16.4138H29.212C29.7174 16.4138 30.2021 16.6021 30.5594 16.9372C30.9168 17.2722 31.1176 17.7267 31.1176 18.2006C31.1176 18.6744 30.9168 19.1289 30.5594 19.464C30.2021 19.799 29.7174 19.9873 29.212 19.9873H25.6601L24.5752 35.2173C24.5032 36.2311 24.1807 37.2153 23.6332 38.0921C23.0857 38.969 22.3282 39.7144 21.4205 40.2694C20.5129 40.8245 19.4799 41.174 18.4034 41.2903C17.3269 41.4066 16.2363 41.2865 15.2178 40.9395L14.5877 40.7251C14.3525 40.6449 14.1364 40.522 13.9519 40.3634C13.7673 40.2049 13.6178 40.0138 13.512 39.8011C13.4062 39.5884 13.3461 39.3583 13.3352 39.1238C13.3242 38.8893 13.3626 38.6551 13.4482 38.4345C13.5338 38.214 13.6649 38.0114 13.8339 37.8383C14.003 37.6653 14.2068 37.5251 14.4336 37.4259C14.6605 37.3267 14.906 37.2704 15.156 37.2601C15.4061 37.2498 15.6559 37.2858 15.8911 37.3661L16.5186 37.5805C16.9814 37.7381 17.477 37.7927 17.9661 37.7399C18.4553 37.6872 18.9246 37.5285 19.3371 37.2764C19.7496 37.0243 20.094 36.6858 20.343 36.2875C20.5919 35.8892 20.7388 35.442 20.7718 34.9814L21.8389 19.9873H20.3195C19.8142 19.9873 19.3295 19.799 18.9721 19.464C18.6148 19.1289 18.414 18.6744 18.414 18.2006C18.414 17.7267 18.6148 17.2722 18.9721 16.9372C19.3295 16.6021 19.8142 16.4138 20.3195 16.4138H22.0955L22.2733 13.9029Z"/>
</svg>
