<svg xmlns="http://www.w3.org/2000/svg" width="100%" height="auto" viewBox="0 0 654 270" fill="none">
    <rect class="isr-form" x="1" y="1" width="652" height="268" rx="3" stroke="#4084F3" stroke-width="2" stroke-dasharray="6 6"></rect>
    <g class="isr-field">
        <rect x="339" y="27" width="292" height="167" rx="3" fill="#07A982" fill-opacity="0.05" stroke="#07A982" stroke-width="2" stroke-dasharray="6 6"></rect>
        <rect class="isr-control" x="358" y="77" width="252" height="40" rx="3" fill="#E94E88" fill-opacity="0.05" stroke="#E94E88" stroke-width="2" stroke-dasharray="6 6"></rect>
        <path d="M358.504 46.8H360.584V56.24H366.44V58H358.504V46.8ZM371.232 49.36C372.491 49.36 373.451 49.664 374.112 50.272C374.784 50.8693 375.12 51.776 375.12 52.992V58H373.232V56.96C372.987 57.3333 372.635 57.6213 372.176 57.824C371.728 58.016 371.184 58.112 370.544 58.112C369.904 58.112 369.344 58.0053 368.864 57.792C368.384 57.568 368.011 57.264 367.744 56.88C367.488 56.4853 367.36 56.0427 367.36 55.552C367.36 54.784 367.643 54.1707 368.208 53.712C368.784 53.2427 369.686 53.008 370.912 53.008H373.12V52.88C373.12 52.2827 372.939 51.824 372.576 51.504C372.224 51.184 371.696 51.024 370.992 51.024C370.512 51.024 370.038 51.0987 369.568 51.248C369.11 51.3973 368.72 51.6053 368.4 51.872L367.616 50.416C368.064 50.0747 368.603 49.8133 369.232 49.632C369.862 49.4507 370.528 49.36 371.232 49.36ZM370.96 56.656C371.462 56.656 371.904 56.544 372.288 56.32C372.683 56.0853 372.96 55.7547 373.12 55.328V54.336H371.056C369.904 54.336 369.328 54.7147 369.328 55.472C369.328 55.8347 369.472 56.1227 369.76 56.336C370.048 56.5493 370.448 56.656 370.96 56.656ZM382.423 49.36C383.255 49.36 383.996 49.5413 384.647 49.904C385.308 50.2667 385.826 50.7787 386.199 51.44C386.572 52.1013 386.759 52.864 386.759 53.728C386.759 54.592 386.572 55.36 386.199 56.032C385.826 56.6933 385.308 57.2053 384.647 57.568C383.996 57.9307 383.255 58.112 382.423 58.112C381.836 58.112 381.298 58.0107 380.807 57.808C380.327 57.6053 379.922 57.3013 379.591 56.896V58H377.687V46.128H379.687V50.496C380.028 50.1227 380.428 49.84 380.887 49.648C381.356 49.456 381.868 49.36 382.423 49.36ZM382.199 56.4C382.935 56.4 383.538 56.1547 384.007 55.664C384.487 55.1733 384.727 54.528 384.727 53.728C384.727 52.928 384.487 52.2827 384.007 51.792C383.538 51.3013 382.935 51.056 382.199 51.056C381.719 51.056 381.287 51.168 380.903 51.392C380.519 51.6053 380.215 51.9147 379.991 52.32C379.767 52.7253 379.655 53.1947 379.655 53.728C379.655 54.2613 379.767 54.7307 379.991 55.136C380.215 55.5413 380.519 55.856 380.903 56.08C381.287 56.2933 381.719 56.4 382.199 56.4ZM396.688 53.776C396.688 53.9147 396.677 54.112 396.656 54.368H389.952C390.069 54.9973 390.373 55.4987 390.864 55.872C391.365 56.2347 391.984 56.416 392.72 56.416C393.658 56.416 394.432 56.1067 395.04 55.488L396.112 56.72C395.728 57.1787 395.242 57.5253 394.656 57.76C394.069 57.9947 393.408 58.112 392.672 58.112C391.733 58.112 390.906 57.9253 390.192 57.552C389.477 57.1787 388.922 56.6613 388.528 56C388.144 55.328 387.952 54.5707 387.952 53.728C387.952 52.896 388.138 52.1493 388.512 51.488C388.896 50.816 389.424 50.2933 390.096 49.92C390.768 49.5467 391.525 49.36 392.368 49.36C393.2 49.36 393.941 49.5467 394.592 49.92C395.253 50.2827 395.765 50.8 396.128 51.472C396.501 52.1333 396.688 52.9013 396.688 53.776ZM392.368 50.96C391.728 50.96 391.184 51.152 390.736 51.536C390.298 51.9093 390.032 52.4107 389.936 53.04H394.784C394.698 52.4213 394.437 51.92 394 51.536C393.562 51.152 393.018 50.96 392.368 50.96ZM398.609 46.128H400.609V58H398.609V46.128Z" fill="white"></path>
        <path d="M358.991 135.2H362.981C364.017 135.2 364.931 135.41 365.725 135.83C366.518 136.241 367.134 136.819 367.573 137.566C368.011 138.303 368.231 139.148 368.231 140.1C368.231 141.052 368.011 141.901 367.573 142.648C367.134 143.385 366.518 143.964 365.725 144.384C364.931 144.795 364.017 145 362.981 145H358.991V135.2ZM362.925 144.104C363.783 144.104 364.535 143.936 365.179 143.6C365.823 143.255 366.322 142.783 366.677 142.186C367.031 141.579 367.209 140.884 367.209 140.1C367.209 139.316 367.031 138.625 366.677 138.028C366.322 137.421 365.823 136.95 365.179 136.614C364.535 136.269 363.783 136.096 362.925 136.096H360.027V144.104H362.925ZM376.759 141.626H370.599C370.655 142.391 370.949 143.012 371.481 143.488C372.013 143.955 372.685 144.188 373.497 144.188C373.954 144.188 374.374 144.109 374.757 143.95C375.14 143.782 375.471 143.539 375.751 143.222L376.311 143.866C375.984 144.258 375.574 144.557 375.079 144.762C374.594 144.967 374.057 145.07 373.469 145.07C372.713 145.07 372.041 144.911 371.453 144.594C370.874 144.267 370.422 143.819 370.095 143.25C369.768 142.681 369.605 142.037 369.605 141.318C369.605 140.599 369.759 139.955 370.067 139.386C370.384 138.817 370.814 138.373 371.355 138.056C371.906 137.739 372.522 137.58 373.203 137.58C373.884 137.58 374.496 137.739 375.037 138.056C375.578 138.373 376.003 138.817 376.311 139.386C376.619 139.946 376.773 140.59 376.773 141.318L376.759 141.626ZM373.203 138.434C372.494 138.434 371.896 138.663 371.411 139.12C370.935 139.568 370.664 140.156 370.599 140.884H375.821C375.756 140.156 375.48 139.568 374.995 139.12C374.519 138.663 373.922 138.434 373.203 138.434ZM380.77 145.07C380.173 145.07 379.599 144.986 379.048 144.818C378.507 144.641 378.082 144.421 377.774 144.16L378.222 143.376C378.53 143.619 378.917 143.819 379.384 143.978C379.851 144.127 380.336 144.202 380.84 144.202C381.512 144.202 382.007 144.099 382.324 143.894C382.651 143.679 382.814 143.381 382.814 142.998C382.814 142.727 382.725 142.517 382.548 142.368C382.371 142.209 382.147 142.093 381.876 142.018C381.605 141.934 381.246 141.855 380.798 141.78C380.201 141.668 379.72 141.556 379.356 141.444C378.992 141.323 378.679 141.122 378.418 140.842C378.166 140.562 378.04 140.175 378.04 139.68C378.04 139.064 378.297 138.56 378.81 138.168C379.323 137.776 380.037 137.58 380.952 137.58C381.428 137.58 381.904 137.645 382.38 137.776C382.856 137.897 383.248 138.061 383.556 138.266L383.122 139.064C382.515 138.644 381.792 138.434 380.952 138.434C380.317 138.434 379.837 138.546 379.51 138.77C379.193 138.994 379.034 139.288 379.034 139.652C379.034 139.932 379.123 140.156 379.3 140.324C379.487 140.492 379.715 140.618 379.986 140.702C380.257 140.777 380.63 140.856 381.106 140.94C381.694 141.052 382.165 141.164 382.52 141.276C382.875 141.388 383.178 141.579 383.43 141.85C383.682 142.121 383.808 142.494 383.808 142.97C383.808 143.614 383.537 144.127 382.996 144.51C382.464 144.883 381.722 145.07 380.77 145.07ZM388.698 145.07C387.97 145.07 387.316 144.911 386.738 144.594C386.168 144.277 385.72 143.833 385.394 143.264C385.067 142.685 384.904 142.037 384.904 141.318C384.904 140.599 385.067 139.955 385.394 139.386C385.72 138.817 386.168 138.373 386.738 138.056C387.316 137.739 387.97 137.58 388.698 137.58C389.332 137.58 389.897 137.706 390.392 137.958C390.896 138.201 391.292 138.56 391.582 139.036L390.84 139.54C390.597 139.176 390.289 138.905 389.916 138.728C389.542 138.541 389.136 138.448 388.698 138.448C388.166 138.448 387.685 138.569 387.256 138.812C386.836 139.045 386.504 139.381 386.262 139.82C386.028 140.259 385.912 140.758 385.912 141.318C385.912 141.887 386.028 142.391 386.262 142.83C386.504 143.259 386.836 143.595 387.256 143.838C387.685 144.071 388.166 144.188 388.698 144.188C389.136 144.188 389.542 144.099 389.916 143.922C390.289 143.745 390.597 143.474 390.84 143.11L391.582 143.614C391.292 144.09 390.896 144.454 390.392 144.706C389.888 144.949 389.323 145.07 388.698 145.07ZM394.486 139.078C394.72 138.583 395.065 138.21 395.522 137.958C395.989 137.706 396.563 137.58 397.244 137.58V138.546L397.006 138.532C396.232 138.532 395.625 138.77 395.186 139.246C394.748 139.722 394.528 140.389 394.528 141.248V145H393.534V137.636H394.486V139.078ZM399.044 137.636H400.038V145H399.044V137.636ZM399.548 136.026C399.343 136.026 399.17 135.956 399.03 135.816C398.89 135.676 398.82 135.508 398.82 135.312C398.82 135.125 398.89 134.962 399.03 134.822C399.17 134.682 399.343 134.612 399.548 134.612C399.754 134.612 399.926 134.682 400.066 134.822C400.206 134.953 400.276 135.111 400.276 135.298C400.276 135.503 400.206 135.676 400.066 135.816C399.926 135.956 399.754 136.026 399.548 136.026ZM406.598 137.58C407.289 137.58 407.914 137.739 408.474 138.056C409.034 138.364 409.473 138.803 409.79 139.372C410.107 139.941 410.266 140.59 410.266 141.318C410.266 142.055 410.107 142.709 409.79 143.278C409.473 143.847 409.034 144.291 408.474 144.608C407.923 144.916 407.298 145.07 406.598 145.07C406.001 145.07 405.459 144.949 404.974 144.706C404.498 144.454 404.106 144.09 403.798 143.614V147.716H402.804V137.636H403.756V139.092C404.055 138.607 404.447 138.233 404.932 137.972C405.427 137.711 405.982 137.58 406.598 137.58ZM406.528 144.188C407.041 144.188 407.508 144.071 407.928 143.838C408.348 143.595 408.675 143.255 408.908 142.816C409.151 142.377 409.272 141.878 409.272 141.318C409.272 140.758 409.151 140.263 408.908 139.834C408.675 139.395 408.348 139.055 407.928 138.812C407.508 138.569 407.041 138.448 406.528 138.448C406.005 138.448 405.534 138.569 405.114 138.812C404.703 139.055 404.377 139.395 404.134 139.834C403.901 140.263 403.784 140.758 403.784 141.318C403.784 141.878 403.901 142.377 404.134 142.816C404.377 143.255 404.703 143.595 405.114 143.838C405.534 144.071 406.005 144.188 406.528 144.188ZM416.17 144.552C415.984 144.72 415.75 144.851 415.47 144.944C415.2 145.028 414.915 145.07 414.616 145.07C413.926 145.07 413.394 144.883 413.02 144.51C412.647 144.137 412.46 143.609 412.46 142.928V138.476H411.144V137.636H412.46V136.026H413.454V137.636H415.694V138.476H413.454V142.872C413.454 143.311 413.562 143.647 413.776 143.88C414 144.104 414.318 144.216 414.728 144.216C414.934 144.216 415.13 144.183 415.316 144.118C415.512 144.053 415.68 143.959 415.82 143.838L416.17 144.552ZM417.98 137.636H418.974V145H417.98V137.636ZM418.484 136.026C418.278 136.026 418.106 135.956 417.966 135.816C417.826 135.676 417.756 135.508 417.756 135.312C417.756 135.125 417.826 134.962 417.966 134.822C418.106 134.682 418.278 134.612 418.484 134.612C418.689 134.612 418.862 134.682 419.002 134.822C419.142 134.953 419.212 135.111 419.212 135.298C419.212 135.503 419.142 135.676 419.002 135.816C418.862 135.956 418.689 136.026 418.484 136.026ZM424.75 145.07C424.04 145.07 423.401 144.911 422.832 144.594C422.262 144.267 421.814 143.819 421.488 143.25C421.161 142.681 420.998 142.037 420.998 141.318C420.998 140.599 421.161 139.955 421.488 139.386C421.814 138.817 422.262 138.373 422.832 138.056C423.401 137.739 424.04 137.58 424.75 137.58C425.459 137.58 426.098 137.739 426.668 138.056C427.237 138.373 427.68 138.817 427.998 139.386C428.324 139.955 428.488 140.599 428.488 141.318C428.488 142.037 428.324 142.681 427.998 143.25C427.68 143.819 427.237 144.267 426.668 144.594C426.098 144.911 425.459 145.07 424.75 145.07ZM424.75 144.188C425.272 144.188 425.739 144.071 426.15 143.838C426.57 143.595 426.896 143.255 427.13 142.816C427.363 142.377 427.48 141.878 427.48 141.318C427.48 140.758 427.363 140.259 427.13 139.82C426.896 139.381 426.57 139.045 426.15 138.812C425.739 138.569 425.272 138.448 424.75 138.448C424.227 138.448 423.756 138.569 423.336 138.812C422.925 139.045 422.598 139.381 422.356 139.82C422.122 140.259 422.006 140.758 422.006 141.318C422.006 141.878 422.122 142.377 422.356 142.816C422.598 143.255 422.925 143.595 423.336 143.838C423.756 144.071 424.227 144.188 424.75 144.188ZM434.269 137.58C435.193 137.58 435.926 137.851 436.467 138.392C437.018 138.924 437.293 139.703 437.293 140.73V145H436.299V140.828C436.299 140.063 436.108 139.479 435.725 139.078C435.342 138.677 434.796 138.476 434.087 138.476C433.294 138.476 432.664 138.714 432.197 139.19C431.74 139.657 431.511 140.305 431.511 141.136V145H430.517V137.636H431.469V138.994C431.74 138.546 432.113 138.201 432.589 137.958C433.074 137.706 433.634 137.58 434.269 137.58Z" fill="white"></path>
    </g>
    <g class="isr-field">
        <rect x="22" y="27" width="292" height="167" rx="3" fill="#07A982" fill-opacity="0.05" stroke="#07A982" stroke-width="2" stroke-dasharray="6 6"></rect>
        <rect class="isr-control" x="41" y="77" width="252" height="40" rx="3" fill="#E94E88" fill-opacity="0.05" stroke="#E94E88" stroke-width="2" stroke-dasharray="6 6"></rect>
        <path d="M41.504 46.8H43.584V56.24H49.44V58H41.504V46.8ZM54.2323 49.36C55.4909 49.36 56.4509 49.664 57.1123 50.272C57.7843 50.8693 58.1203 51.776 58.1203 52.992V58H56.2323V56.96C55.9869 57.3333 55.6349 57.6213 55.1763 57.824C54.7283 58.016 54.1843 58.112 53.5443 58.112C52.9043 58.112 52.3443 58.0053 51.8643 57.792C51.3843 57.568 51.0109 57.264 50.7443 56.88C50.4883 56.4853 50.3603 56.0427 50.3603 55.552C50.3603 54.784 50.6429 54.1707 51.2083 53.712C51.7843 53.2427 52.6856 53.008 53.9123 53.008H56.1203V52.88C56.1203 52.2827 55.9389 51.824 55.5763 51.504C55.2243 51.184 54.6963 51.024 53.9923 51.024C53.5123 51.024 53.0376 51.0987 52.5683 51.248C52.1096 51.3973 51.7203 51.6053 51.4003 51.872L50.6163 50.416C51.0643 50.0747 51.6029 49.8133 52.2323 49.632C52.8616 49.4507 53.5283 49.36 54.2323 49.36ZM53.9603 56.656C54.4616 56.656 54.9043 56.544 55.2883 56.32C55.6829 56.0853 55.9603 55.7547 56.1203 55.328V54.336H54.0563C52.9043 54.336 52.3283 54.7147 52.3283 55.472C52.3283 55.8347 52.4723 56.1227 52.7603 56.336C53.0483 56.5493 53.4483 56.656 53.9603 56.656ZM65.423 49.36C66.255 49.36 66.9963 49.5413 67.647 49.904C68.3083 50.2667 68.8257 50.7787 69.199 51.44C69.5723 52.1013 69.759 52.864 69.759 53.728C69.759 54.592 69.5723 55.36 69.199 56.032C68.8257 56.6933 68.3083 57.2053 67.647 57.568C66.9963 57.9307 66.255 58.112 65.423 58.112C64.8363 58.112 64.2977 58.0107 63.807 57.808C63.327 57.6053 62.9217 57.3013 62.591 56.896V58H60.687V46.128H62.687V50.496C63.0283 50.1227 63.4283 49.84 63.887 49.648C64.3563 49.456 64.8683 49.36 65.423 49.36ZM65.199 56.4C65.935 56.4 66.5377 56.1547 67.007 55.664C67.487 55.1733 67.727 54.528 67.727 53.728C67.727 52.928 67.487 52.2827 67.007 51.792C66.5377 51.3013 65.935 51.056 65.199 51.056C64.719 51.056 64.287 51.168 63.903 51.392C63.519 51.6053 63.215 51.9147 62.991 52.32C62.767 52.7253 62.655 53.1947 62.655 53.728C62.655 54.2613 62.767 54.7307 62.991 55.136C63.215 55.5413 63.519 55.856 63.903 56.08C64.287 56.2933 64.719 56.4 65.199 56.4ZM79.6878 53.776C79.6878 53.9147 79.6771 54.112 79.6558 54.368H72.9518C73.0691 54.9973 73.3731 55.4987 73.8638 55.872C74.3651 56.2347 74.9838 56.416 75.7198 56.416C76.6584 56.416 77.4318 56.1067 78.0398 55.488L79.1118 56.72C78.7278 57.1787 78.2424 57.5253 77.6558 57.76C77.0691 57.9947 76.4078 58.112 75.6718 58.112C74.7331 58.112 73.9064 57.9253 73.1918 57.552C72.4771 57.1787 71.9224 56.6613 71.5278 56C71.1438 55.328 70.9518 54.5707 70.9518 53.728C70.9518 52.896 71.1384 52.1493 71.5118 51.488C71.8958 50.816 72.4238 50.2933 73.0958 49.92C73.7678 49.5467 74.5251 49.36 75.3678 49.36C76.1998 49.36 76.9411 49.5467 77.5918 49.92C78.2531 50.2827 78.7651 50.8 79.1278 51.472C79.5011 52.1333 79.6878 52.9013 79.6878 53.776ZM75.3678 50.96C74.7278 50.96 74.1838 51.152 73.7358 51.536C73.2984 51.9093 73.0318 52.4107 72.9358 53.04H77.7838C77.6984 52.4213 77.4371 51.92 76.9998 51.536C76.5624 51.152 76.0184 50.96 75.3678 50.96ZM81.6089 46.128H83.6089V58H81.6089V46.128Z" fill="white"></path>
        <path d="M41.9905 135.2H45.9805C47.0165 135.2 47.9312 135.41 48.7245 135.83C49.5179 136.241 50.1339 136.819 50.5725 137.566C51.0112 138.303 51.2305 139.148 51.2305 140.1C51.2305 141.052 51.0112 141.901 50.5725 142.648C50.1339 143.385 49.5179 143.964 48.7245 144.384C47.9312 144.795 47.0165 145 45.9805 145H41.9905V135.2ZM45.9245 144.104C46.7832 144.104 47.5345 143.936 48.1785 143.6C48.8225 143.255 49.3219 142.783 49.6765 142.186C50.0312 141.579 50.2085 140.884 50.2085 140.1C50.2085 139.316 50.0312 138.625 49.6765 138.028C49.3219 137.421 48.8225 136.95 48.1785 136.614C47.5345 136.269 46.7832 136.096 45.9245 136.096H43.0265V144.104H45.9245ZM59.7589 141.626H53.5989C53.6549 142.391 53.9489 143.012 54.4809 143.488C55.0129 143.955 55.6849 144.188 56.4969 144.188C56.9543 144.188 57.3743 144.109 57.7569 143.95C58.1396 143.782 58.4709 143.539 58.7509 143.222L59.3109 143.866C58.9843 144.258 58.5736 144.557 58.0789 144.762C57.5936 144.967 57.0569 145.07 56.4689 145.07C55.7129 145.07 55.0409 144.911 54.4529 144.594C53.8743 144.267 53.4216 143.819 53.0949 143.25C52.7683 142.681 52.6049 142.037 52.6049 141.318C52.6049 140.599 52.7589 139.955 53.0669 139.386C53.3843 138.817 53.8136 138.373 54.3549 138.056C54.9056 137.739 55.5216 137.58 56.2029 137.58C56.8843 137.58 57.4956 137.739 58.0369 138.056C58.5783 138.373 59.0029 138.817 59.3109 139.386C59.6189 139.946 59.7729 140.59 59.7729 141.318L59.7589 141.626ZM56.2029 138.434C55.4936 138.434 54.8963 138.663 54.4109 139.12C53.9349 139.568 53.6643 140.156 53.5989 140.884H58.8209C58.7556 140.156 58.4803 139.568 57.9949 139.12C57.5189 138.663 56.9216 138.434 56.2029 138.434ZM63.7702 145.07C63.1728 145.07 62.5988 144.986 62.0482 144.818C61.5068 144.641 61.0822 144.421 60.7742 144.16L61.2222 143.376C61.5302 143.619 61.9175 143.819 62.3842 143.978C62.8508 144.127 63.3362 144.202 63.8402 144.202C64.5122 144.202 65.0068 144.099 65.3242 143.894C65.6508 143.679 65.8142 143.381 65.8142 142.998C65.8142 142.727 65.7255 142.517 65.5482 142.368C65.3708 142.209 65.1468 142.093 64.8762 142.018C64.6055 141.934 64.2462 141.855 63.7982 141.78C63.2008 141.668 62.7202 141.556 62.3562 141.444C61.9922 141.323 61.6795 141.122 61.4182 140.842C61.1662 140.562 61.0402 140.175 61.0402 139.68C61.0402 139.064 61.2968 138.56 61.8102 138.168C62.3235 137.776 63.0375 137.58 63.9522 137.58C64.4282 137.58 64.9042 137.645 65.3802 137.776C65.8562 137.897 66.2482 138.061 66.5562 138.266L66.1222 139.064C65.5155 138.644 64.7922 138.434 63.9522 138.434C63.3175 138.434 62.8368 138.546 62.5102 138.77C62.1928 138.994 62.0342 139.288 62.0342 139.652C62.0342 139.932 62.1228 140.156 62.3002 140.324C62.4868 140.492 62.7155 140.618 62.9862 140.702C63.2568 140.777 63.6302 140.856 64.1062 140.94C64.6942 141.052 65.1655 141.164 65.5202 141.276C65.8748 141.388 66.1782 141.579 66.4302 141.85C66.6822 142.121 66.8082 142.494 66.8082 142.97C66.8082 143.614 66.5375 144.127 65.9962 144.51C65.4642 144.883 64.7222 145.07 63.7702 145.07ZM71.6978 145.07C70.9698 145.07 70.3164 144.911 69.7378 144.594C69.1684 144.277 68.7204 143.833 68.3938 143.264C68.0671 142.685 67.9038 142.037 67.9038 141.318C67.9038 140.599 68.0671 139.955 68.3938 139.386C68.7204 138.817 69.1684 138.373 69.7378 138.056C70.3164 137.739 70.9698 137.58 71.6978 137.58C72.3324 137.58 72.8971 137.706 73.3918 137.958C73.8958 138.201 74.2924 138.56 74.5818 139.036L73.8398 139.54C73.5971 139.176 73.2891 138.905 72.9158 138.728C72.5424 138.541 72.1364 138.448 71.6978 138.448C71.1658 138.448 70.6851 138.569 70.2558 138.812C69.8358 139.045 69.5044 139.381 69.2618 139.82C69.0284 140.259 68.9118 140.758 68.9118 141.318C68.9118 141.887 69.0284 142.391 69.2618 142.83C69.5044 143.259 69.8358 143.595 70.2558 143.838C70.6851 144.071 71.1658 144.188 71.6978 144.188C72.1364 144.188 72.5424 144.099 72.9158 143.922C73.2891 143.745 73.5971 143.474 73.8398 143.11L74.5818 143.614C74.2924 144.09 73.8958 144.454 73.3918 144.706C72.8878 144.949 72.3231 145.07 71.6978 145.07ZM77.4864 139.078C77.7198 138.583 78.0651 138.21 78.5224 137.958C78.9891 137.706 79.5631 137.58 80.2444 137.58V138.546L80.0064 138.532C79.2318 138.532 78.6251 138.77 78.1864 139.246C77.7478 139.722 77.5284 140.389 77.5284 141.248V145H76.5344V137.636H77.4864V139.078ZM82.0442 137.636H83.0382V145H82.0442V137.636ZM82.5482 136.026C82.3429 136.026 82.1702 135.956 82.0302 135.816C81.8902 135.676 81.8202 135.508 81.8202 135.312C81.8202 135.125 81.8902 134.962 82.0302 134.822C82.1702 134.682 82.3429 134.612 82.5482 134.612C82.7535 134.612 82.9262 134.682 83.0662 134.822C83.2062 134.953 83.2762 135.111 83.2762 135.298C83.2762 135.503 83.2062 135.676 83.0662 135.816C82.9262 135.956 82.7535 136.026 82.5482 136.026ZM89.598 137.58C90.2886 137.58 90.914 137.739 91.474 138.056C92.034 138.364 92.4726 138.803 92.79 139.372C93.1073 139.941 93.266 140.59 93.266 141.318C93.266 142.055 93.1073 142.709 92.79 143.278C92.4726 143.847 92.034 144.291 91.474 144.608C90.9233 144.916 90.298 145.07 89.598 145.07C89.0006 145.07 88.4593 144.949 87.974 144.706C87.498 144.454 87.106 144.09 86.798 143.614V147.716H85.804V137.636H86.756V139.092C87.0546 138.607 87.4466 138.233 87.932 137.972C88.4266 137.711 88.982 137.58 89.598 137.58ZM89.528 144.188C90.0413 144.188 90.508 144.071 90.928 143.838C91.348 143.595 91.6746 143.255 91.908 142.816C92.1506 142.377 92.272 141.878 92.272 141.318C92.272 140.758 92.1506 140.263 91.908 139.834C91.6746 139.395 91.348 139.055 90.928 138.812C90.508 138.569 90.0413 138.448 89.528 138.448C89.0053 138.448 88.534 138.569 88.114 138.812C87.7033 139.055 87.3766 139.395 87.134 139.834C86.9006 140.263 86.784 140.758 86.784 141.318C86.784 141.878 86.9006 142.377 87.134 142.816C87.3766 143.255 87.7033 143.595 88.114 143.838C88.534 144.071 89.0053 144.188 89.528 144.188ZM99.1703 144.552C98.9836 144.72 98.7503 144.851 98.4703 144.944C98.1996 145.028 97.9149 145.07 97.6163 145.07C96.9256 145.07 96.3936 144.883 96.0203 144.51C95.6469 144.137 95.4603 143.609 95.4603 142.928V138.476H94.1443V137.636H95.4603V136.026H96.4543V137.636H98.6943V138.476H96.4543V142.872C96.4543 143.311 96.5616 143.647 96.7763 143.88C97.0003 144.104 97.3176 144.216 97.7283 144.216C97.9336 144.216 98.1296 144.183 98.3163 144.118C98.5123 144.053 98.6803 143.959 98.8203 143.838L99.1703 144.552ZM100.98 137.636H101.974V145H100.98V137.636ZM101.484 136.026C101.278 136.026 101.106 135.956 100.966 135.816C100.826 135.676 100.756 135.508 100.756 135.312C100.756 135.125 100.826 134.962 100.966 134.822C101.106 134.682 101.278 134.612 101.484 134.612C101.689 134.612 101.862 134.682 102.002 134.822C102.142 134.953 102.212 135.111 102.212 135.298C102.212 135.503 102.142 135.676 102.002 135.816C101.862 135.956 101.689 136.026 101.484 136.026ZM107.75 145.07C107.04 145.07 106.401 144.911 105.832 144.594C105.262 144.267 104.814 143.819 104.488 143.25C104.161 142.681 103.998 142.037 103.998 141.318C103.998 140.599 104.161 139.955 104.488 139.386C104.814 138.817 105.262 138.373 105.832 138.056C106.401 137.739 107.04 137.58 107.75 137.58C108.459 137.58 109.098 137.739 109.668 138.056C110.237 138.373 110.68 138.817 110.998 139.386C111.324 139.955 111.488 140.599 111.488 141.318C111.488 142.037 111.324 142.681 110.998 143.25C110.68 143.819 110.237 144.267 109.668 144.594C109.098 144.911 108.459 145.07 107.75 145.07ZM107.75 144.188C108.272 144.188 108.739 144.071 109.15 143.838C109.57 143.595 109.896 143.255 110.13 142.816C110.363 142.377 110.48 141.878 110.48 141.318C110.48 140.758 110.363 140.259 110.13 139.82C109.896 139.381 109.57 139.045 109.15 138.812C108.739 138.569 108.272 138.448 107.75 138.448C107.227 138.448 106.756 138.569 106.336 138.812C105.925 139.045 105.598 139.381 105.356 139.82C105.122 140.259 105.006 140.758 105.006 141.318C105.006 141.878 105.122 142.377 105.356 142.816C105.598 143.255 105.925 143.595 106.336 143.838C106.756 144.071 107.227 144.188 107.75 144.188ZM117.269 137.58C118.193 137.58 118.926 137.851 119.467 138.392C120.018 138.924 120.293 139.703 120.293 140.73V145H119.299V140.828C119.299 140.063 119.108 139.479 118.725 139.078C118.342 138.677 117.796 138.476 117.087 138.476C116.294 138.476 115.664 138.714 115.197 139.19C114.74 139.657 114.511 140.305 114.511 141.136V145H113.517V137.636H114.469V138.994C114.74 138.546 115.113 138.201 115.589 137.958C116.074 137.706 116.634 137.58 117.269 137.58Z" fill="white"></path>
        <path opacity="0.6" d="M43.5 163.096H40.056V162.2H47.98V163.096H44.536V172H43.5V163.096ZM53.1771 164.58C54.1011 164.58 54.8337 164.851 55.3751 165.392C55.9257 165.924 56.2011 166.703 56.2011 167.73V172H55.2071V167.828C55.2071 167.063 55.0157 166.479 54.6331 166.078C54.2504 165.677 53.7044 165.476 52.9951 165.476C52.2017 165.476 51.5717 165.714 51.1051 166.19C50.6477 166.657 50.4191 167.305 50.4191 168.136V172H49.4251V161.612H50.4191V165.924C50.6897 165.495 51.0631 165.163 51.5391 164.93C52.0151 164.697 52.5611 164.58 53.1771 164.58ZM58.8997 164.636H59.8937V172H58.8997V164.636ZM59.4037 163.026C59.1983 163.026 59.0257 162.956 58.8857 162.816C58.7457 162.676 58.6757 162.508 58.6757 162.312C58.6757 162.125 58.7457 161.962 58.8857 161.822C59.0257 161.682 59.1983 161.612 59.4037 161.612C59.609 161.612 59.7817 161.682 59.9217 161.822C60.0617 161.953 60.1317 162.111 60.1317 162.298C60.1317 162.503 60.0617 162.676 59.9217 162.816C59.7817 162.956 59.609 163.026 59.4037 163.026ZM64.6334 172.07C64.0361 172.07 63.4621 171.986 62.9114 171.818C62.3701 171.641 61.9454 171.421 61.6374 171.16L62.0854 170.376C62.3934 170.619 62.7808 170.819 63.2474 170.978C63.7141 171.127 64.1994 171.202 64.7034 171.202C65.3754 171.202 65.8701 171.099 66.1874 170.894C66.5141 170.679 66.6774 170.381 66.6774 169.998C66.6774 169.727 66.5888 169.517 66.4114 169.368C66.2341 169.209 66.0101 169.093 65.7394 169.018C65.4688 168.934 65.1094 168.855 64.6614 168.78C64.0641 168.668 63.5834 168.556 63.2194 168.444C62.8554 168.323 62.5428 168.122 62.2814 167.842C62.0294 167.562 61.9034 167.175 61.9034 166.68C61.9034 166.064 62.1601 165.56 62.6734 165.168C63.1868 164.776 63.9008 164.58 64.8154 164.58C65.2914 164.58 65.7674 164.645 66.2434 164.776C66.7194 164.897 67.1114 165.061 67.4194 165.266L66.9854 166.064C66.3788 165.644 65.6554 165.434 64.8154 165.434C64.1808 165.434 63.7001 165.546 63.3734 165.77C63.0561 165.994 62.8974 166.288 62.8974 166.652C62.8974 166.932 62.9861 167.156 63.1634 167.324C63.3501 167.492 63.5788 167.618 63.8494 167.702C64.1201 167.777 64.4934 167.856 64.9694 167.94C65.5574 168.052 66.0288 168.164 66.3834 168.276C66.7381 168.388 67.0414 168.579 67.2934 168.85C67.5454 169.121 67.6714 169.494 67.6714 169.97C67.6714 170.614 67.4008 171.127 66.8594 171.51C66.3274 171.883 65.5854 172.07 64.6334 172.07ZM75.6091 162.382C75.1798 162.382 74.8531 162.499 74.6291 162.732C74.4144 162.965 74.3071 163.311 74.3071 163.768V164.636H76.5751V165.476H74.3351V172H73.3411V165.476H72.0251V164.636H73.3411V163.726C73.3411 163.054 73.5324 162.522 73.9151 162.13C74.3071 161.738 74.8578 161.542 75.5671 161.542C75.8471 161.542 76.1178 161.584 76.3791 161.668C76.6404 161.743 76.8598 161.855 77.0371 162.004L76.7011 162.746C76.4118 162.503 76.0478 162.382 75.6091 162.382ZM79.0391 164.636H80.0331V172H79.0391V164.636ZM79.5431 163.026C79.3378 163.026 79.1651 162.956 79.0251 162.816C78.8851 162.676 78.8151 162.508 78.8151 162.312C78.8151 162.125 78.8851 161.962 79.0251 161.822C79.1651 161.682 79.3378 161.612 79.5431 161.612C79.7484 161.612 79.9211 161.682 80.0611 161.822C80.2011 161.953 80.2711 162.111 80.2711 162.298C80.2711 162.503 80.2011 162.676 80.0611 162.816C79.9211 162.956 79.7484 163.026 79.5431 163.026ZM89.2238 168.626H83.0638C83.1198 169.391 83.4138 170.012 83.9458 170.488C84.4778 170.955 85.1498 171.188 85.9618 171.188C86.4191 171.188 86.8391 171.109 87.2218 170.95C87.6044 170.782 87.9358 170.539 88.2158 170.222L88.7758 170.866C88.4491 171.258 88.0384 171.557 87.5438 171.762C87.0584 171.967 86.5218 172.07 85.9338 172.07C85.1778 172.07 84.5058 171.911 83.9178 171.594C83.3391 171.267 82.8864 170.819 82.5598 170.25C82.2331 169.681 82.0698 169.037 82.0698 168.318C82.0698 167.599 82.2238 166.955 82.5318 166.386C82.8491 165.817 83.2784 165.373 83.8198 165.056C84.3704 164.739 84.9864 164.58 85.6678 164.58C86.3491 164.58 86.9604 164.739 87.5018 165.056C88.0431 165.373 88.4678 165.817 88.7758 166.386C89.0838 166.946 89.2378 167.59 89.2378 168.318L89.2238 168.626ZM85.6678 165.434C84.9584 165.434 84.3611 165.663 83.8758 166.12C83.3998 166.568 83.1291 167.156 83.0638 167.884H88.2858C88.2204 167.156 87.9451 166.568 87.4598 166.12C86.9838 165.663 86.3864 165.434 85.6678 165.434ZM91.261 161.612H92.255V172H91.261V161.612ZM101.741 161.612V172H100.789V170.544C100.49 171.039 100.093 171.417 99.5988 171.678C99.1134 171.939 98.5628 172.07 97.9468 172.07C97.2561 172.07 96.6308 171.911 96.0708 171.594C95.5108 171.277 95.0721 170.833 94.7548 170.264C94.4374 169.695 94.2788 169.046 94.2788 168.318C94.2788 167.59 94.4374 166.941 94.7548 166.372C95.0721 165.803 95.5108 165.364 96.0708 165.056C96.6308 164.739 97.2561 164.58 97.9468 164.58C98.5441 164.58 99.0808 164.706 99.5568 164.958C100.042 165.201 100.439 165.56 100.747 166.036V161.612H101.741ZM98.0308 171.188C98.5441 171.188 99.0061 171.071 99.4168 170.838C99.8368 170.595 100.163 170.255 100.397 169.816C100.639 169.377 100.761 168.878 100.761 168.318C100.761 167.758 100.639 167.259 100.397 166.82C100.163 166.381 99.8368 166.045 99.4168 165.812C99.0061 165.569 98.5441 165.448 98.0308 165.448C97.5081 165.448 97.0368 165.569 96.6168 165.812C96.2061 166.045 95.8794 166.381 95.6368 166.82C95.4034 167.259 95.2868 167.758 95.2868 168.318C95.2868 168.878 95.4034 169.377 95.6368 169.816C95.8794 170.255 96.2061 170.595 96.6168 170.838C97.0368 171.071 97.5081 171.188 98.0308 171.188ZM108.173 164.636H109.167V172H108.173V164.636ZM108.677 163.026C108.472 163.026 108.299 162.956 108.159 162.816C108.019 162.676 107.949 162.508 107.949 162.312C107.949 162.125 108.019 161.962 108.159 161.822C108.299 161.682 108.472 161.612 108.677 161.612C108.882 161.612 109.055 161.682 109.195 161.822C109.335 161.953 109.405 162.111 109.405 162.298C109.405 162.503 109.335 162.676 109.195 162.816C109.055 162.956 108.882 163.026 108.677 163.026ZM113.907 172.07C113.31 172.07 112.736 171.986 112.185 171.818C111.644 171.641 111.219 171.421 110.911 171.16L111.359 170.376C111.667 170.619 112.054 170.819 112.521 170.978C112.988 171.127 113.473 171.202 113.977 171.202C114.649 171.202 115.144 171.099 115.461 170.894C115.788 170.679 115.951 170.381 115.951 169.998C115.951 169.727 115.862 169.517 115.685 169.368C115.508 169.209 115.284 169.093 115.013 169.018C114.742 168.934 114.383 168.855 113.935 168.78C113.338 168.668 112.857 168.556 112.493 168.444C112.129 168.323 111.816 168.122 111.555 167.842C111.303 167.562 111.177 167.175 111.177 166.68C111.177 166.064 111.434 165.56 111.947 165.168C112.46 164.776 113.174 164.58 114.089 164.58C114.565 164.58 115.041 164.645 115.517 164.776C115.993 164.897 116.385 165.061 116.693 165.266L116.259 166.064C115.652 165.644 114.929 165.434 114.089 165.434C113.454 165.434 112.974 165.546 112.647 165.77C112.33 165.994 112.171 166.288 112.171 166.652C112.171 166.932 112.26 167.156 112.437 167.324C112.624 167.492 112.852 167.618 113.123 167.702C113.394 167.777 113.767 167.856 114.243 167.94C114.831 168.052 115.302 168.164 115.657 168.276C116.012 168.388 116.315 168.579 116.567 168.85C116.819 169.121 116.945 169.494 116.945 169.97C116.945 170.614 116.674 171.127 116.133 171.51C115.601 171.883 114.859 172.07 113.907 172.07ZM123.399 166.078C123.632 165.583 123.977 165.21 124.435 164.958C124.901 164.706 125.475 164.58 126.157 164.58V165.546L125.919 165.532C125.144 165.532 124.537 165.77 124.099 166.246C123.66 166.722 123.441 167.389 123.441 168.248V172H122.447V164.636H123.399V166.078ZM134.3 168.626H128.14C128.196 169.391 128.49 170.012 129.022 170.488C129.554 170.955 130.226 171.188 131.038 171.188C131.495 171.188 131.915 171.109 132.298 170.95C132.681 170.782 133.012 170.539 133.292 170.222L133.852 170.866C133.525 171.258 133.115 171.557 132.62 171.762C132.135 171.967 131.598 172.07 131.01 172.07C130.254 172.07 129.582 171.911 128.994 171.594C128.415 171.267 127.963 170.819 127.636 170.25C127.309 169.681 127.146 169.037 127.146 168.318C127.146 167.599 127.3 166.955 127.608 166.386C127.925 165.817 128.355 165.373 128.896 165.056C129.447 164.739 130.063 164.58 130.744 164.58C131.425 164.58 132.037 164.739 132.578 165.056C133.119 165.373 133.544 165.817 133.852 166.386C134.16 166.946 134.314 167.59 134.314 168.318L134.3 168.626ZM130.744 165.434C130.035 165.434 129.437 165.663 128.952 166.12C128.476 166.568 128.205 167.156 128.14 167.884H133.362C133.297 167.156 133.021 166.568 132.536 166.12C132.06 165.663 131.463 165.434 130.744 165.434ZM143.057 164.636V174.716H142.063V170.614C141.755 171.09 141.359 171.454 140.873 171.706C140.397 171.949 139.861 172.07 139.263 172.07C138.563 172.07 137.933 171.916 137.373 171.608C136.823 171.291 136.389 170.847 136.071 170.278C135.754 169.709 135.595 169.055 135.595 168.318C135.595 167.59 135.754 166.941 136.071 166.372C136.389 165.803 136.827 165.364 137.387 165.056C137.947 164.739 138.573 164.58 139.263 164.58C139.879 164.58 140.43 164.711 140.915 164.972C141.41 165.233 141.807 165.607 142.105 166.092V164.636H143.057ZM139.347 171.188C139.861 171.188 140.323 171.071 140.733 170.838C141.153 170.595 141.48 170.255 141.713 169.816C141.956 169.377 142.077 168.878 142.077 168.318C142.077 167.758 141.956 167.263 141.713 166.834C141.48 166.395 141.153 166.055 140.733 165.812C140.323 165.569 139.861 165.448 139.347 165.448C138.825 165.448 138.353 165.569 137.933 165.812C137.523 166.055 137.196 166.395 136.953 166.834C136.72 167.263 136.603 167.758 136.603 168.318C136.603 168.878 136.72 169.377 136.953 169.816C137.196 170.255 137.523 170.595 137.933 170.838C138.353 171.071 138.825 171.188 139.347 171.188ZM152.461 164.636V172H151.509V170.656C151.248 171.104 150.889 171.454 150.431 171.706C149.974 171.949 149.451 172.07 148.863 172.07C147.902 172.07 147.141 171.804 146.581 171.272C146.031 170.731 145.755 169.942 145.755 168.906V164.636H146.749V168.808C146.749 169.583 146.941 170.171 147.323 170.572C147.706 170.973 148.252 171.174 148.961 171.174C149.736 171.174 150.347 170.941 150.795 170.474C151.243 169.998 151.467 169.34 151.467 168.5V164.636H152.461ZM155.245 164.636H156.239V172H155.245V164.636ZM155.749 163.026C155.544 163.026 155.371 162.956 155.231 162.816C155.091 162.676 155.021 162.508 155.021 162.312C155.021 162.125 155.091 161.962 155.231 161.822C155.371 161.682 155.544 161.612 155.749 161.612C155.955 161.612 156.127 161.682 156.267 161.822C156.407 161.953 156.477 162.111 156.477 162.298C156.477 162.503 156.407 162.676 156.267 162.816C156.127 162.956 155.955 163.026 155.749 163.026ZM159.957 166.078C160.19 165.583 160.536 165.21 160.993 164.958C161.46 164.706 162.034 164.58 162.715 164.58V165.546L162.477 165.532C161.702 165.532 161.096 165.77 160.657 166.246C160.218 166.722 159.999 167.389 159.999 168.248V172H159.005V164.636H159.957V166.078ZM170.859 168.626H164.699C164.755 169.391 165.049 170.012 165.581 170.488C166.113 170.955 166.785 171.188 167.597 171.188C168.054 171.188 168.474 171.109 168.857 170.95C169.239 170.782 169.571 170.539 169.851 170.222L170.411 170.866C170.084 171.258 169.673 171.557 169.179 171.762C168.693 171.967 168.157 172.07 167.569 172.07C166.813 172.07 166.141 171.911 165.553 171.594C164.974 171.267 164.521 170.819 164.195 170.25C163.868 169.681 163.705 169.037 163.705 168.318C163.705 167.599 163.859 166.955 164.167 166.386C164.484 165.817 164.913 165.373 165.455 165.056C166.005 164.739 166.621 164.58 167.303 164.58C167.984 164.58 168.595 164.739 169.137 165.056C169.678 165.373 170.103 165.817 170.411 166.386C170.719 166.946 170.873 167.59 170.873 168.318L170.859 168.626ZM167.303 165.434C166.593 165.434 165.996 165.663 165.511 166.12C165.035 166.568 164.764 167.156 164.699 167.884H169.921C169.855 167.156 169.58 166.568 169.095 166.12C168.619 165.663 168.021 165.434 167.303 165.434ZM179.616 161.612V172H178.664V170.544C178.365 171.039 177.968 171.417 177.474 171.678C176.988 171.939 176.438 172.07 175.822 172.07C175.131 172.07 174.506 171.911 173.946 171.594C173.386 171.277 172.947 170.833 172.63 170.264C172.312 169.695 172.154 169.046 172.154 168.318C172.154 167.59 172.312 166.941 172.63 166.372C172.947 165.803 173.386 165.364 173.946 165.056C174.506 164.739 175.131 164.58 175.822 164.58C176.419 164.58 176.956 164.706 177.432 164.958C177.917 165.201 178.314 165.56 178.622 166.036V161.612H179.616ZM175.906 171.188C176.419 171.188 176.881 171.071 177.292 170.838C177.712 170.595 178.038 170.255 178.272 169.816C178.514 169.377 178.636 168.878 178.636 168.318C178.636 167.758 178.514 167.259 178.272 166.82C178.038 166.381 177.712 166.045 177.292 165.812C176.881 165.569 176.419 165.448 175.906 165.448C175.383 165.448 174.912 165.569 174.492 165.812C174.081 166.045 173.754 166.381 173.512 166.82C173.278 167.259 173.162 167.758 173.162 168.318C173.162 168.878 173.278 169.377 173.512 169.816C173.754 170.255 174.081 170.595 174.492 170.838C174.912 171.071 175.383 171.188 175.906 171.188ZM182.23 162.2H183.406L183.196 169.06H182.426L182.23 162.2ZM182.818 172.07C182.613 172.07 182.435 172 182.286 171.86C182.146 171.711 182.076 171.538 182.076 171.342C182.076 171.137 182.146 170.969 182.286 170.838C182.426 170.698 182.603 170.628 182.818 170.628C183.023 170.628 183.196 170.698 183.336 170.838C183.476 170.969 183.546 171.137 183.546 171.342C183.546 171.538 183.476 171.711 183.336 171.86C183.196 172 183.023 172.07 182.818 172.07Z" fill="white"></path>
    </g>
    <rect x="20" y="212" width="612" height="36" rx="4" fill="#4084F3"></rect>
    <path d="M301.39 236.16C300.526 236.16 299.689 236.037 298.878 235.792C298.078 235.547 297.443 235.221 296.974 234.816L297.694 233.2C298.153 233.563 298.713 233.861 299.374 234.096C300.046 234.32 300.718 234.432 301.39 234.432C302.222 234.432 302.841 234.299 303.246 234.032C303.662 233.765 303.87 233.413 303.87 232.976C303.87 232.656 303.753 232.395 303.518 232.192C303.294 231.979 303.006 231.813 302.654 231.696C302.302 231.579 301.822 231.445 301.214 231.296C300.361 231.093 299.667 230.891 299.134 230.688C298.611 230.485 298.158 230.171 297.774 229.744C297.401 229.307 297.214 228.72 297.214 227.984C297.214 227.365 297.379 226.805 297.71 226.304C298.051 225.792 298.558 225.387 299.23 225.088C299.913 224.789 300.745 224.64 301.726 224.64C302.409 224.64 303.081 224.725 303.742 224.896C304.403 225.067 304.974 225.312 305.454 225.632L304.798 227.248C304.307 226.96 303.795 226.741 303.262 226.592C302.729 226.443 302.211 226.368 301.71 226.368C300.889 226.368 300.275 226.507 299.87 226.784C299.475 227.061 299.278 227.429 299.278 227.888C299.278 228.208 299.39 228.469 299.614 228.672C299.849 228.875 300.142 229.035 300.494 229.152C300.846 229.269 301.326 229.403 301.934 229.552C302.766 229.744 303.449 229.947 303.982 230.16C304.515 230.363 304.969 230.677 305.342 231.104C305.726 231.531 305.918 232.107 305.918 232.832C305.918 233.451 305.747 234.011 305.406 234.512C305.075 235.013 304.569 235.413 303.886 235.712C303.203 236.011 302.371 236.16 301.39 236.16ZM316.061 227.456V236H314.157V234.912C313.837 235.296 313.437 235.595 312.957 235.808C312.477 236.011 311.959 236.112 311.405 236.112C310.263 236.112 309.362 235.797 308.701 235.168C308.05 234.528 307.725 233.584 307.725 232.336V227.456H309.725V232.064C309.725 232.832 309.895 233.408 310.237 233.792C310.589 234.165 311.085 234.352 311.725 234.352C312.439 234.352 313.005 234.133 313.421 233.696C313.847 233.248 314.061 232.608 314.061 231.776V227.456H316.061ZM323.415 227.36C324.247 227.36 324.989 227.541 325.639 227.904C326.301 228.267 326.818 228.779 327.191 229.44C327.565 230.101 327.751 230.864 327.751 231.728C327.751 232.592 327.565 233.36 327.191 234.032C326.818 234.693 326.301 235.205 325.639 235.568C324.989 235.931 324.247 236.112 323.415 236.112C322.829 236.112 322.29 236.011 321.799 235.808C321.319 235.605 320.914 235.301 320.583 234.896V236H318.679V224.128H320.679V228.496C321.021 228.123 321.421 227.84 321.879 227.648C322.349 227.456 322.861 227.36 323.415 227.36ZM323.191 234.4C323.927 234.4 324.53 234.155 324.999 233.664C325.479 233.173 325.719 232.528 325.719 231.728C325.719 230.928 325.479 230.283 324.999 229.792C324.53 229.301 323.927 229.056 323.191 229.056C322.711 229.056 322.279 229.168 321.895 229.392C321.511 229.605 321.207 229.915 320.983 230.32C320.759 230.725 320.647 231.195 320.647 231.728C320.647 232.261 320.759 232.731 320.983 233.136C321.207 233.541 321.511 233.856 321.895 234.08C322.279 234.293 322.711 234.4 323.191 234.4ZM340.432 227.36C341.509 227.36 342.363 227.675 342.992 228.304C343.621 228.923 343.936 229.856 343.936 231.104V236H341.936V231.36C341.936 230.613 341.771 230.053 341.44 229.68C341.109 229.296 340.635 229.104 340.016 229.104C339.344 229.104 338.805 229.328 338.4 229.776C337.995 230.213 337.792 230.843 337.792 231.664V236H335.792V231.36C335.792 230.613 335.627 230.053 335.296 229.68C334.965 229.296 334.491 229.104 333.872 229.104C333.189 229.104 332.645 229.323 332.24 229.76C331.845 230.197 331.648 230.832 331.648 231.664V236H329.648V227.456H331.552V228.544C331.872 228.16 332.272 227.867 332.752 227.664C333.232 227.461 333.765 227.36 334.352 227.36C334.992 227.36 335.557 227.483 336.048 227.728C336.549 227.963 336.944 228.315 337.232 228.784C337.584 228.336 338.037 227.989 338.592 227.744C339.147 227.488 339.76 227.36 340.432 227.36ZM346.492 227.456H348.492V236H346.492V227.456ZM347.5 226.048C347.137 226.048 346.833 225.936 346.588 225.712C346.342 225.477 346.22 225.189 346.22 224.848C346.22 224.507 346.342 224.224 346.588 224C346.833 223.765 347.137 223.648 347.5 223.648C347.862 223.648 348.166 223.76 348.412 223.984C348.657 224.197 348.78 224.469 348.78 224.8C348.78 225.152 348.657 225.451 348.412 225.696C348.177 225.931 347.873 226.048 347.5 226.048ZM356.253 235.536C356.018 235.728 355.73 235.872 355.389 235.968C355.058 236.064 354.706 236.112 354.333 236.112C353.394 236.112 352.669 235.867 352.157 235.376C351.645 234.885 351.389 234.171 351.389 233.232V229.12H349.981V227.52H351.389V225.568H353.389V227.52H355.677V229.12H353.389V233.184C353.389 233.6 353.49 233.92 353.693 234.144C353.895 234.357 354.189 234.464 354.573 234.464C355.021 234.464 355.394 234.347 355.693 234.112L356.253 235.536Z" fill="white"></path>
</svg>